PathFileType	4	(X/Y/Z)	C:/Users/opensim2020/Desktop/walking_exp_matlab/subject02_walking10_straight_01.trc																																																																																																																															
DataRate	CameraRate	NumFrames	NumMarkers	Units	OrigDataRate	OrigDataStartFrame	OrigNumFrames																																																																																																																											
100	100	4	43	mm	100	695	328																																																																																																																											
Frame#	Time	LFHD			RFHD			LBHD			RBHD			C7			T10			CLAV			STRN			RBAK			LSHO			LUPA			LELB			LFRM			LWRA			LWRB			LFIN			RSHO			RUPA			RELB			RFRM			RWRA			RWRB			RFIN			LASI			RASI			LPSI			RPSI			LTHI			LKNE			LTIB			LANK			LHEE			LTOE			RTHI			RKNE			RTIB			RANK			RHEE			RTOE			*39			*40			*41			*42		
		X1	Y1	Z1	X2	Y2	Z2	X3	Y3	Z3	X4	Y4	Z4	X5	Y5	Z5	X6	Y6	Z6	X7	Y7	Z7	X8	Y8	Z8	X9	Y9	Z9	X10	Y10	Z10	X11	Y11	Z11	X12	Y12	Z12	X13	Y13	Z13	X14	Y14	Z14	X15	Y15	Z15	X16	Y16	Z16	X17	Y17	Z17	X18	Y18	Z18	X19	Y19	Z19	X20	Y20	Z20	X21	Y21	Z21	X22	Y22	Z22	X23	Y23	Z23	X24	Y24	Z24	X25	Y25	Z25	X26	Y26	Z26	X27	Y27	Z27	X28	Y28	Z28	X29	Y29	Z29	X30	Y30	Z30	X31	Y31	Z31	X32	Y32	Z32	X33	Y33	Z33	X34	Y34	Z34	X35	Y35	Z35	X36	Y36	Z36	X37	Y37	Z37	X38	Y38	Z38	X39	Y39	Z39	X40	Y40	Z40	X41	Y41	Z41	X42	Y42	Z42	X43	Y43	Z43
																																																																																																																																		
247	2.46	239.44133	1757.45764	1482.05615	264.60495	1739.35364	1623.00183	144.97807	1640.23132	1485.02026	158.58919	1616.18738	1625.66174	131.59163	1521.41479	1556.07239	70.38457	1251.0697	1563.53735	270.25949	1454.74207	1527.46204	317.23929	1279.42261	1534.79785	78.71176	1355.88647	1629.28247	184.16628	1496.61121	1367.02454	136.46602	1302.27966	1287.32825	110.9347	1163.15454	1277.03015	103.48889	1030.86523	1262.69409	149.77855	900.06116	1286.005	100.16547	907.42151	1258.76318	112.87806	841.56097	1254.42493	238.65552	1489.92139	1729.19495	250.39952	1299.15051	1820.19409	298.38251	1158.75928	1835.64026	359.58273	1053.5481	1842.08984	432.62625	944.90271	1805.91541	398.40854	929.64581	1849.12585	452.70868	882.61749	1841.40771	299.86838	987.6806	1418.09949	301.65176	971.15051	1675.96008	90.32301	1027.98608	1502.51196	87.01765	1029.75439	1617.63403	298.97964	688.33154	1344.8313	340.26309	491.9151	1372.04004	357.31674	299.13339	1367.8877	455.21432	95.14227	1377.16028	442.04733	60.16345	1433.80969	609.5694	98.56123	1342.93469	184.72185	666.953	1720.97656	147.51718	461.12613	1671.39026	69.99112	287.78436	1665.99731	20.71583	101.71266	1616.00952	-17.76739	52.1399	1556.44458	163.88278	36.29924	1640.3269	133.03444	1779.53699	1586.82471	2845.89014	1034.13269	-3356.70728	NaN	NaN	NaN	NaN	NaN	NaN
248	2.47	246.10587	1756.84192	1480.68152	271.42978	1738.89331	1621.6449	151.82402	1639.42322	1483.8186	165.42564	1615.47778	1624.21265	138.74434	1520.79504	1554.76807	77.19727	1250.32605	1561.97009	277.38309	1454.07288	1526.42651	324.25952	1278.70825	1534.0564	85.53251	1355.41968	1627.94409	191.5377	1495.86108	1365.83643	142.82639	1301.73413	1286.09192	116.78385	1162.92139	1276.00403	108.51429	1030.74768	1261.42188	154.15753	899.35242	1284.6665	104.9932	907.03705	1257.41028	116.89184	841.08905	1252.98083	245.5723	1489.58289	1728.44543	257.0322	1298.52112	1818.95959	305.21744	1158.14612	1834.37634	367.1795	1053.38135	1840.72266	441.03	945.35559	1804.0188	406.44925	929.43188	1846.81567	460.90936	882.70099	1838.87842	307.17935	986.53168	1417.62512	307.8627	970.43976	1675.76379	97.33533	1027.42664	1501.19226	93.78677	1029.0647	1616.02039	308.42499	688.38898	1343.64355	349.91843	492.06516	1371.18237	366.81186	299.29312	1367.31567	463.03598	94.91254	1377.1156	449.41605	60.23553	1433.67944	617.43579	97.15015	1343.45117	189.28313	666.71185	1720.59924	151.23125	461.01633	1671.43481	71.96663	288.3197	1665.96545	21.1785	102.64144	1616.15869	-17.55074	53.25402	1556.47083	163.91144	36.26413	1640.45142	139.66318	1778.70264	1585.27563	2845.13037	1034.20007	-3360.22388	NaN	NaN	NaN	NaN	NaN	NaN
249	2.48	252.77972	1756.21057	1479.22754	278.23361	1738.41724	1620.13171	158.74631	1638.6394	1482.54175	172.42938	1614.83716	1622.92432	145.86076	1520.21265	1553.45276	84.28773	1249.98865	1560.69873	284.58423	1453.448	1525.35791	331.34961	1278.04346	1533.21863	92.56342	1354.59338	1626.21606	198.83278	1495.02368	1364.42444	150.28461	1301.03796	1285.07324	123.15475	1162.37097	1274.76599	114.25285	1030.01782	1260.06934	158.76935	898.57031	1283.1261	109.54145	906.79865	1255.86475	121.14111	840.61591	1251.4165	252.27878	1488.98682	1727.12256	263.75607	1297.94153	1817.70264	311.83499	1157.33911	1832.79883	374.39816	1052.95935	1839.0061	448.64487	945.38275	1801.72266	414.24872	929.13025	1844.47766	469.21439	882.87909	1836.58459	314.82239	985.62158	1417.04639	313.97983	969.81134	1675.18982	104.49473	1026.90161	1499.72778	100.38755	1028.55164	1614.43872	317.72397	688.49261	1342.71179	359.49423	492.19928	1370.24719	375.3775	299.29028	1366.47437	469.78979	94.19466	1376.94983	455.74478	59.66502	1433.46277	624.43872	95.5213	1344.03894	193.86667	666.50201	1720.19287	154.88503	461.10785	1671.43054	73.9809	288.9133	1665.87207	21.66761	103.56152	1616.30054	-17.24034	54.32642	1556.54224	164.04869	36.31644	1640.6958	146.32365	1778.14502	1583.77905	2845.89014	1034.19409	-3356.90332	NaN	NaN	NaN	NaN	NaN	NaN
250	2.49	259.54324	1755.55322	1477.61816	285.10721	1738.0072	1618.58264	165.65948	1637.82861	1481.18896	179.4982	1614.27014	1621.60425	151.45773	1520.11719	1552.59912	91.39007	1249.4801	1559.19141	291.81952	1452.82739	1524.19006	338.54507	1277.38538	1532.38171	99.49516	1354.3634	1625.11646	206.46642	1494.34387	1363.24805	157.10695	1300.46423	1283.73633	129.59203	1161.90649	1273.42737	119.70497	1029.85522	1258.6051	163.718	898.00232	1281.57788	114.28558	906.42957	1254.57092	125.52729	840.35614	1249.77197	259.30319	1488.495	1725.78552	270.55023	1297.39978	1816.38623	318.8107	1156.9231	1831.52881	381.41467	1052.40735	1837.02783	456.32254	945.42841	1799.49438	421.82132	928.77319	1842.08142	477.05762	882.86322	1834.0144	322.56445	984.7995	1416.46436	320.59625	969.04999	1675.00061	111.74821	1026.32214	1498.1925	107.14905	1027.99792	1612.7334	326.54147	688.33459	1341.24146	368.95041	492.25406	1369.24353	383.45972	299.21786	1365.51733	475.99823	93.62056	1376.84497	461.59753	59.18616	1433.60229	630.67749	93.81828	1344.71863	198.48775	666.34894	1719.64001	158.43716	461.09201	1671.21118	76.06403	289.62561	1665.66394	22.16929	104.55917	1616.42188	-17.04772	55.75473	1556.73315	164.1302	36.28254	1640.8656	153.11415	1777.42236	1582.25952	2846.06226	1034.22522	-3357.15332	NaN	NaN	NaN	NaN	NaN	NaN
